<?xml version="1.0" standalone="no"?>
<!DOCTYPE svg PUBLIC "-//W3C//DTD SVG 20010904//EN"
 "http://www.w3.org/TR/2001/REC-SVG-20010904/DTD/svg10.dtd">
<svg version="1.0" xmlns="http://www.w3.org/2000/svg"
 width="960.000000pt" height="960.000000pt" viewBox="0 0 960.000000 960.000000"
 preserveAspectRatio="xMidYMid meet">
<metadata>
Created by potrace 1.14, written by Peter Selinger 2001-2017
</metadata>
<g transform="translate(0.000000,960.000000) scale(0.100000,-0.100000)"
fill="#000000" stroke="none">
<path d="M4658 9465 c-2 -2 -38 -6 -80 -10 -42 -3 -87 -8 -100 -11 -13 -2 -38
-7 -57 -10 -34 -6 -55 -10 -101 -21 -14 -3 -33 -6 -42 -7 -10 0 -18 -3 -18 -6
0 -3 -9 -6 -19 -7 -29 -2 -222 -69 -299 -104 -95 -42 -223 -109 -251 -131 -13
-10 -30 -18 -37 -18 -8 0 -14 -4 -14 -10 0 -5 -4 -10 -10 -10 -5 0 -18 -6 -27
-14 -10 -8 -52 -40 -93 -70 -173 -128 -317 -274 -452 -457 -32 -43 -58 -81
-58 -84 0 -4 -11 -21 -24 -38 -21 -28 -109 -184 -112 -197 0 -3 -13 -31 -27
-63 -65 -141 -142 -386 -153 -485 -2 -18 -6 -42 -9 -52 -3 -10 -8 -37 -10 -61
-11 -96 -13 -104 -26 -103 -8 1 -54 8 -104 17 -139 25 -217 31 -385 31 -157
-1 -231 -6 -365 -29 -63 -10 -276 -65 -296 -76 -11 -5 -19 -7 -19 -4 0 2 -25
-6 -55 -20 -31 -13 -58 -24 -60 -25 -3 0 -25 -9 -50 -20 -25 -11 -46 -19 -48
-18 -1 1 -42 -20 -92 -47 -109 -57 -326 -201 -378 -250 -21 -19 -40 -35 -43
-35 -9 0 -206 -202 -249 -255 -76 -94 -221 -305 -209 -305 3 0 -3 -12 -14 -27
-38 -54 -134 -270 -131 -297 0 -5 -3 -12 -8 -15 -5 -3 -19 -40 -32 -81 -30
-100 -33 -111 -35 -136 -1 -11 -5 -24 -8 -30 -3 -5 -8 -25 -12 -44 -3 -19 -8
-46 -11 -60 -27 -124 -39 -438 -22 -585 10 -98 17 -148 24 -175 3 -14 7 -34 9
-45 2 -11 5 -27 7 -35 2 -8 7 -31 11 -50 10 -44 53 -184 71 -230 17 -45 28
-74 30 -80 1 -3 16 -36 33 -74 18 -38 32 -72 32 -76 0 -4 7 -13 15 -20 8 -7
15 -21 15 -31 0 -11 4 -19 8 -19 4 0 18 -19 30 -43 36 -67 56 -100 75 -121 9
-11 17 -23 17 -27 0 -3 13 -22 30 -40 16 -19 30 -37 30 -41 0 -4 10 -18 22
-31 13 -13 41 -45 63 -71 60 -71 203 -208 280 -269 5 -4 35 -26 65 -48 30 -22
63 -47 73 -55 9 -7 19 -14 21 -14 2 0 35 -19 72 -41 94 -58 233 -129 250 -129
18 0 31 -30 17 -39 -10 -6 -116 -219 -148 -296 -9 -22 -30 -83 -47 -135 -16
-52 -32 -102 -35 -110 -3 -8 -7 -24 -9 -35 -1 -11 -10 -54 -19 -95 -9 -41 -18
-92 -20 -112 -3 -21 -8 -57 -11 -80 -10 -68 -12 -357 -3 -428 11 -96 18 -142
24 -172 3 -16 7 -38 9 -50 2 -13 7 -36 11 -52 5 -16 9 -36 10 -45 1 -9 4 -23
7 -31 5 -13 14 -44 23 -85 28 -120 161 -400 260 -550 37 -55 71 -102 76 -103
5 -2 9 -8 9 -14 0 -29 267 -306 372 -387 195 -150 451 -291 638 -351 104 -34
195 -58 202 -54 4 3 8 0 8 -5 0 -6 3 -10 8 -9 4 1 39 -4 77 -11 74 -14 83 -15
185 -28 124 -15 445 -8 549 12 10 2 34 6 52 9 62 11 94 17 111 22 14 4 28 7
73 17 6 2 15 5 20 9 6 3 26 9 45 13 105 22 360 136 505 225 80 49 218 149 223
162 2 4 8 8 13 8 5 0 27 17 49 38 107 102 128 123 172 170 l48 51 57 -61 c32
-34 70 -73 85 -87 74 -72 261 -221 278 -221 5 0 10 -4 10 -8 0 -5 12 -15 28
-22 15 -8 34 -19 42 -26 85 -66 402 -206 545 -240 29 -7 38 -10 55 -17 8 -4
29 -9 45 -11 17 -3 42 -7 58 -10 153 -32 219 -38 417 -40 157 -1 272 6 341 19
13 3 36 7 52 10 88 16 117 22 127 25 3 1 10 3 15 4 36 6 220 66 280 91 134 55
243 111 352 181 29 19 57 34 62 34 5 0 11 3 13 8 2 4 41 36 88 72 47 36 92 72
101 80 8 8 41 39 72 68 31 29 57 54 57 56 0 1 24 27 53 58 64 68 147 172 147
185 0 5 9 15 20 23 11 8 20 18 20 23 0 5 13 27 28 50 31 46 133 226 136 242 1
6 10 28 20 50 27 61 77 188 82 205 2 8 17 67 33 130 16 63 32 133 35 155 3 22
8 51 11 65 13 65 18 139 18 305 1 220 -6 293 -47 490 -31 148 -120 385 -197
525 -48 87 -68 137 -52 127 5 -3 58 20 118 50 61 31 120 61 132 67 13 6 23 14
23 19 0 4 5 7 11 7 12 0 103 60 107 72 2 4 9 8 15 8 7 0 26 14 44 30 18 17 36
30 40 30 24 1 270 245 351 349 204 261 371 609 418 871 2 14 7 36 11 50 6 27
7 30 17 100 20 135 23 201 20 365 -2 99 -5 189 -7 200 -8 46 -21 131 -23 148
-1 9 -3 19 -4 22 -6 13 -24 108 -22 118 1 4 -3 7 -9 7 -5 0 -8 4 -4 9 3 5 1
20 -4 33 -9 23 -41 123 -45 143 -2 6 -8 21 -14 35 -6 14 -19 45 -29 70 -44
109 -164 334 -195 364 -9 9 -20 25 -23 36 -3 11 -11 20 -16 20 -5 0 -9 5 -9
11 0 6 -19 34 -42 62 -24 29 -52 63 -63 77 -21 26 -233 237 -257 255 -7 6 -42
33 -78 60 -56 43 -111 81 -195 133 -11 7 -35 20 -52 29 -18 9 -33 20 -33 25 0
4 -6 8 -14 8 -7 0 -33 10 -57 23 -45 24 -181 81 -239 102 -3 1 -26 8 -52 15
-27 8 -48 18 -48 23 0 4 -3 6 -8 3 -4 -2 -50 6 -102 20 -112 28 -178 40 -267
48 -23 3 -47 7 -52 10 -5 4 -12 2 -16 -4 -4 -6 -13 -7 -23 -1 -19 9 -289 8
-372 -3 -30 -4 -68 -9 -85 -11 -16 -2 -30 -4 -30 -5 0 -1 -14 -3 -32 -6 -18
-2 -52 -8 -75 -13 -50 -12 -57 -5 -54 50 0 22 -1 39 -4 39 -3 0 -7 15 -8 33
-3 33 -9 72 -12 72 -1 0 -3 14 -5 31 -6 62 -80 313 -114 389 -44 97 -59 135
-53 135 4 0 2 4 -4 8 -6 4 -32 48 -59 97 -26 50 -59 104 -72 121 -12 17 -23
36 -23 42 0 7 -4 12 -8 12 -4 0 -16 13 -25 30 -10 16 -23 35 -30 42 -7 7 -25
31 -42 53 -52 71 -208 233 -285 295 -23 19 -54 45 -68 58 -91 80 -419 269
-512 297 -14 4 -29 11 -35 15 -12 9 -191 68 -225 74 -14 3 -25 5 -25 6 0 1 -7
3 -15 5 -30 6 -75 16 -97 20 -13 3 -35 8 -50 11 -16 3 -43 7 -62 9 -19 2 -50
7 -70 10 -38 7 -377 15 -383 10z m646 -4320 c4 -33 16 -107 28 -165 11 -58 22
-112 23 -120 1 -8 5 -23 9 -32 4 -9 9 -22 10 -30 2 -7 6 -20 9 -28 3 -8 15
-46 28 -85 12 -38 30 -86 40 -106 10 -20 15 -39 12 -43 -4 -3 0 -6 7 -6 7 0
11 -3 8 -6 -5 -5 80 -180 102 -209 23 -32 19 -46 -18 -61 -45 -18 -105 -47
-112 -54 -3 -3 -27 -16 -55 -30 -165 -82 -403 -270 -551 -432 -34 -39 -43 -44
-57 -33 -9 7 -17 18 -17 24 0 7 -4 9 -10 6 -5 -3 -10 -2 -10 3 0 13 -118 132
-131 132 -6 0 -7 5 -4 10 3 6 1 10 -4 10 -6 0 -19 8 -29 18 -28 27 -103 87
-157 126 -64 46 -259 162 -264 158 -2 -2 -7 0 -10 5 -3 5 -39 24 -78 43 -40
18 -73 37 -73 41 0 4 6 14 13 21 11 11 120 223 123 238 0 3 6 19 13 35 32 77
60 155 54 155 -3 0 -1 6 5 13 5 6 13 28 17 47 4 19 10 39 13 45 3 5 7 18 8 30
2 11 9 49 18 85 8 36 18 83 21 105 3 22 7 49 9 60 3 11 5 37 5 58 l1 39 43 -6
c44 -6 71 -10 122 -20 17 -3 57 -9 90 -12 33 -4 76 -8 95 -10 47 -6 51 -6 80
-5 14 1 43 1 65 1 65 -2 300 14 300 20 0 1 16 3 35 5 19 2 62 10 95 18 33 8
63 12 67 8 3 -3 9 -33 12 -66z"/>
</g>
</svg>
